<?xml version="1.0" encoding="utf-8"?>
<!-- Generator: Adobe Illustrator 22.1.0, SVG Export Plug-In . SVG Version: 6.00 Build 0)  -->
<svg version="1.1" id="Layer_1" xmlns="http://www.w3.org/2000/svg" xmlns:xlink="http://www.w3.org/1999/xlink" x="0px" y="0px"
	 viewBox="0 0 293.3 68" style="enable-background:new 0 0 293.3 68;" xml:space="preserve">
<style type="text/css">
	.st0{clip-path:url(#SVGID_2_);}
	.st1{fill:url(#SVGID_3_);}
	.st2{fill:none;}
	.st3{fill:url(#SVGID_4_);}
	.st4{fill:url(#SVGID_5_);}
	.st5{fill:#4CC6F3;}
	.st6{fill:url(#SVGID_6_);}
	.st7{fill:url(#SVGID_7_);}
	.st8{fill:url(#SVGID_8_);}
	.st9{fill:url(#SVGID_9_);}
	.st10{fill:url(#SVGID_10_);}
	.st11{fill:url(#SVGID_11_);}
	.st12{fill:url(#SVGID_12_);}
	.st13{fill:url(#SVGID_13_);}
</style>
<g>
	<g>
		<g>
			<g>
				<defs>
					<path id="SVGID_1_" d="M45.3,34c0,6.2-5.1,11.3-11.3,11.3c-6.2,0-11.3-5.1-11.3-11.3c0-6.2,5.1-11.3,11.3-11.3
						C40.3,22.7,45.3,27.8,45.3,34z"/>
				</defs>
				<clipPath id="SVGID_2_">
					<use xlink:href="#SVGID_1_"  style="overflow:visible;"/>
				</clipPath>
				<g class="st0">
					
						<linearGradient id="SVGID_3_" gradientUnits="userSpaceOnUse" x1="-9.7855" y1="90.8473" x2="78.3241" y2="28.7317" gradientTransform="matrix(1 0 0 -1 0 94)">
						<stop  offset="0" style="stop-color:#3B6BB4"/>
						<stop  offset="7.490000e-02" style="stop-color:#3B6FB7"/>
						<stop  offset="0.1907" style="stop-color:#3A7BBF"/>
						<stop  offset="0.3329" style="stop-color:#388FCD"/>
						<stop  offset="0.4946" style="stop-color:#32ACE2"/>
						<stop  offset="0.515" style="stop-color:#31B0E5"/>
						<stop  offset="0.7067" style="stop-color:#2CB1D5"/>
						<stop  offset="1" style="stop-color:#15B3BB"/>
					</linearGradient>
					<rect x="-2.3" y="-2.1" class="st1" width="72" height="71.8"/>
				</g>
			</g>
		</g>
		<g>
			<path class="st2" d="M52,22.4c-5.8-8.9-17-12.1-26.5-8l21.7,36.4C55.8,44.1,58,31.8,52,22.4z"/>
			<path class="st2" d="M16.1,45.6c5.7,8.9,16.9,12.1,26.3,8.1L20.7,17.3C12.2,24.1,10,36.3,16.1,45.6z"/>
			
				<linearGradient id="SVGID_4_" gradientUnits="userSpaceOnUse" x1="-3.2191" y1="100.1609" x2="84.8926" y2="38.044" gradientTransform="matrix(1 0 0 -1 0 94)">
				<stop  offset="0" style="stop-color:#3B6BB4"/>
				<stop  offset="7.490000e-02" style="stop-color:#3B6FB7"/>
				<stop  offset="0.1907" style="stop-color:#3A7BBF"/>
				<stop  offset="0.3329" style="stop-color:#388FCD"/>
				<stop  offset="0.4946" style="stop-color:#32ACE2"/>
				<stop  offset="0.515" style="stop-color:#31B0E5"/>
				<stop  offset="0.7067" style="stop-color:#2CB1D5"/>
				<stop  offset="1" style="stop-color:#15B3BB"/>
			</linearGradient>
			<path class="st3" d="M52,22.4c6,9.4,3.8,21.6-4.7,28.4l6.5,10.9C68.2,51.4,72.4,31.5,63,16.2C53.7,1.1,34.6-4.2,19,3.5l6.5,10.9
				C35,10.3,46.2,13.5,52,22.4z"/>
			
				<linearGradient id="SVGID_5_" gradientUnits="userSpaceOnUse" x1="-16.3764" y1="81.5068" x2="71.7385" y2="19.3875" gradientTransform="matrix(1 0 0 -1 0 94)">
				<stop  offset="0" style="stop-color:#3B6BB4"/>
				<stop  offset="7.490000e-02" style="stop-color:#3B6FB7"/>
				<stop  offset="0.1907" style="stop-color:#3A7BBF"/>
				<stop  offset="0.3329" style="stop-color:#388FCD"/>
				<stop  offset="0.4946" style="stop-color:#32ACE2"/>
				<stop  offset="0.515" style="stop-color:#31B0E5"/>
				<stop  offset="0.7067" style="stop-color:#2CB1D5"/>
				<stop  offset="1" style="stop-color:#15B3BB"/>
			</linearGradient>
			<path class="st4" d="M16.1,45.6c-6-9.3-3.9-21.5,4.6-28.3L14.2,6.4C-0.2,16.7-4.4,36.6,5.1,51.9c9.3,15,28.3,20.3,43.8,12.7
				l-6.5-10.9C33,57.7,21.8,54.5,16.1,45.6z"/>
		</g>
	</g>
	<g>
		<g>
			<path class="st5" d="M80.6,34.8c0-2.2,0.4-4.3,1.2-6.5c0.8-2.1,1.9-4,3.4-5.7s3.3-3,5.5-4.1c2.2-1,4.7-1.6,7.4-1.6
				c3.3,0,6.1,0.7,8.5,2.2c2.4,1.4,4.2,3.3,5.3,5.6l-5.3,3.7c-0.5-1-1-1.8-1.7-2.5c-0.7-0.7-1.4-1.2-2.2-1.6
				c-0.8-0.4-1.6-0.7-2.4-0.9c-0.8-0.2-1.7-0.3-2.5-0.3c-1.7,0-3.3,0.3-4.5,1.1c-1.3,0.7-2.4,1.6-3.2,2.7c-0.9,1.1-1.5,2.4-1.9,3.8
				c-0.4,1.4-0.7,2.8-0.7,4.2c0,1.6,0.3,3.1,0.8,4.5c0.5,1.5,1.2,2.7,2.1,3.8c0.9,1.1,2,2,3.3,2.7c1.3,0.7,2.7,1,4.2,1
				c0.8,0,1.6-0.1,2.5-0.3c0.9-0.2,1.7-0.5,2.5-1c0.8-0.4,1.5-1,2.2-1.7c0.7-0.7,1.2-1.5,1.6-2.5l5.7,3.3c-0.6,1.3-1.4,2.5-2.4,3.5
				c-1.1,1-2.2,1.9-3.6,2.6c-1.3,0.7-2.7,1.2-4.2,1.6c-1.5,0.4-3,0.6-4.4,0.6c-2.5,0-4.9-0.5-7-1.6c-2.1-1.1-3.9-2.5-5.4-4.2
				c-1.5-1.7-2.7-3.7-3.6-5.9C81,39.3,80.6,37.1,80.6,34.8z"/>
			<path class="st5" d="M128.7,53.4c-2.1,0-4.1-0.4-5.8-1.1c-1.7-0.7-3.2-1.7-4.3-3c-1.2-1.3-2.1-2.7-2.7-4.3c-0.6-1.6-1-3.4-1-5.2
				c0-1.8,0.3-3.6,1-5.2c0.6-1.6,1.5-3.1,2.7-4.3c1.2-1.3,2.6-2.2,4.3-3c1.7-0.7,3.6-1.1,5.8-1.1c2.1,0,4.1,0.4,5.8,1.1
				c1.7,0.7,3.1,1.7,4.3,3c1.2,1.3,2.1,2.7,2.7,4.3c0.6,1.6,1,3.4,1,5.2c0,1.8-0.3,3.5-1,5.2c-0.6,1.6-1.5,3.1-2.7,4.3
				c-1.2,1.3-2.6,2.3-4.3,3C132.8,53,130.8,53.4,128.7,53.4z M121.8,39.8c0,1.2,0.2,2.2,0.5,3.2c0.4,1,0.8,1.8,1.5,2.5
				c0.6,0.7,1.3,1.2,2.2,1.6c0.8,0.4,1.7,0.6,2.7,0.6c1,0,1.9-0.2,2.7-0.6c0.8-0.4,1.6-0.9,2.2-1.6c0.6-0.7,1.1-1.5,1.5-2.5
				c0.4-1,0.5-2,0.5-3.2c0-1.1-0.2-2.2-0.5-3.2c-0.4-1-0.8-1.8-1.5-2.5c-0.6-0.7-1.3-1.2-2.2-1.6c-0.8-0.4-1.7-0.6-2.7-0.6
				c-1,0-1.9,0.2-2.7,0.6c-0.8,0.4-1.6,1-2.2,1.7c-0.6,0.7-1.1,1.5-1.5,2.5C122,37.6,121.8,38.6,121.8,39.8z"/>
			<path class="st5" d="M162.6,32.4c-2,0-3.9,0.4-5.5,1.2c-1.6,0.8-2.8,1.9-3.5,3.4v15.9H147V26.6h6.2v5.6c0.5-0.9,1-1.7,1.7-2.4
				c0.6-0.7,1.3-1.3,2.1-1.9c0.7-0.5,1.5-0.9,2.2-1.2c0.8-0.3,1.5-0.4,2.2-0.4c0.4,0,0.6,0,0.8,0s0.4,0,0.5,0.1L162.6,32.4
				L162.6,32.4z"/>
			<path class="st5" d="M177.3,53.4c-2.1,0-4-0.4-5.7-1.1c-1.7-0.7-3.2-1.7-4.4-2.9c-1.2-1.2-2.1-2.7-2.8-4.3c-0.7-1.6-1-3.4-1-5.2
				c0-1.9,0.3-3.6,1-5.3c0.6-1.7,1.6-3.1,2.8-4.4c1.2-1.3,2.7-2.2,4.4-3c1.7-0.7,3.7-1.1,5.8-1.1c2.1,0,4.1,0.4,5.7,1.1
				c1.7,0.7,3.1,1.7,4.3,3c1.2,1.2,2.1,2.7,2.7,4.3c0.6,1.6,0.9,3.3,0.9,5.1c0,0.4,0,0.9,0,1.3c0,0.4-0.1,0.7-0.1,1h-20.3
				c0.1,1,0.4,2,0.8,2.8c0.4,0.8,0.9,1.5,1.6,2.1c0.6,0.6,1.4,1,2.2,1.3c0.8,0.3,1.6,0.5,2.5,0.5c1.3,0,2.6-0.3,3.8-1
				c1.2-0.7,2-1.5,2.4-2.6l5.8,1.6c-1,2-2.5,3.7-4.6,4.9C182.8,52.7,180.2,53.4,177.3,53.4z M184.1,37.5c-0.2-2-0.9-3.6-2.2-4.7
				c-1.3-1.2-2.9-1.8-4.7-1.8c-0.9,0-1.7,0.2-2.5,0.5s-1.5,0.8-2.1,1.3c-0.6,0.6-1.1,1.3-1.5,2.1c-0.4,0.8-0.6,1.7-0.7,2.7
				C170.5,37.5,184.1,37.5,184.1,37.5z"/>
			<path class="st5" d="M195.6,52.9V17.2h6.9v29.6h18.2v6.1H195.6z"/>
			<path class="st5" d="M224.2,22.9v-6.7h6.7v6.7H224.2z M224.2,52.9V26.6h6.7v26.3L224.2,52.9L224.2,52.9z"/>
			<path class="st5" d="M261.5,52.9h-6.7V38.1c0-2.1-0.4-3.6-1.1-4.6c-0.7-1-1.8-1.5-3.1-1.5c-0.7,0-1.4,0.1-2.1,0.4
				c-0.7,0.3-1.4,0.6-2,1.1c-0.6,0.5-1.2,1.1-1.7,1.7c-0.5,0.7-0.9,1.4-1.1,2.2v15.4H237V26.6h6.1v4.9c1-1.7,2.4-3,4.2-3.9
				c1.8-0.9,3.9-1.4,6.2-1.4c1.6,0,3,0.3,4,0.9c1,0.6,1.8,1.4,2.4,2.4c0.6,1,1,2.1,1.2,3.3c0.2,1.2,0.3,2.5,0.3,3.8V52.9L261.5,52.9
				z"/>
			<path class="st5" d="M279.6,53.4c-2.1,0-4-0.4-5.7-1.1c-1.7-0.7-3.2-1.7-4.4-2.9c-1.2-1.2-2.1-2.7-2.8-4.3c-0.7-1.6-1-3.4-1-5.2
				c0-1.9,0.3-3.6,1-5.3c0.6-1.7,1.6-3.1,2.8-4.4c1.2-1.3,2.7-2.2,4.4-3c1.7-0.7,3.7-1.1,5.8-1.1c2.1,0,4.1,0.4,5.7,1.1
				c1.7,0.7,3.1,1.7,4.3,3c1.2,1.2,2.1,2.7,2.7,4.3c0.6,1.6,0.9,3.3,0.9,5.1c0,0.4,0,0.9,0,1.3c0,0.4-0.1,0.7-0.1,1h-20.3
				c0.1,1,0.4,2,0.8,2.8c0.4,0.8,0.9,1.5,1.6,2.1c0.6,0.6,1.4,1,2.2,1.3c0.8,0.3,1.6,0.5,2.5,0.5c1.3,0,2.6-0.3,3.8-1
				c1.2-0.7,2-1.5,2.4-2.6l5.8,1.6c-1,2-2.5,3.7-4.6,4.9C285.1,52.7,282.5,53.4,279.6,53.4z M286.4,37.5c-0.2-2-0.9-3.6-2.2-4.7
				c-1.3-1.2-2.9-1.8-4.7-1.8c-0.9,0-1.8,0.2-2.5,0.5c-0.8,0.3-1.5,0.8-2.1,1.3c-0.6,0.6-1.1,1.3-1.5,2.1c-0.4,0.8-0.6,1.7-0.7,2.7
				C272.7,37.5,286.4,37.5,286.4,37.5z"/>
		</g>
		<g>
			
				<linearGradient id="SVGID_6_" gradientUnits="userSpaceOnUse" x1="112.0169" y1="52.7308" x2="372.7547" y2="30.4456" gradientTransform="matrix(1 0 0 -1 -1.752 88.8613)">
				<stop  offset="0" style="stop-color:#3B6BB4"/>
				<stop  offset="7.490000e-02" style="stop-color:#3B6FB7"/>
				<stop  offset="0.1907" style="stop-color:#3A7BBF"/>
				<stop  offset="0.3329" style="stop-color:#388FCD"/>
				<stop  offset="0.4946" style="stop-color:#32ACE2"/>
				<stop  offset="0.515" style="stop-color:#31B0E5"/>
				<stop  offset="0.7067" style="stop-color:#2CB1D5"/>
				<stop  offset="1" style="stop-color:#15B3BB"/>
			</linearGradient>
			<path class="st6" d="M80.6,34.8c0-2.2,0.4-4.3,1.2-6.5c0.8-2.1,1.9-4,3.4-5.7s3.3-3,5.5-4.1c2.2-1,4.7-1.6,7.4-1.6
				c3.3,0,6.1,0.7,8.5,2.2c2.4,1.4,4.2,3.3,5.3,5.6l-5.3,3.7c-0.5-1-1-1.8-1.7-2.5c-0.7-0.7-1.4-1.2-2.2-1.6
				c-0.8-0.4-1.6-0.7-2.4-0.9c-0.8-0.2-1.7-0.3-2.5-0.3c-1.7,0-3.3,0.3-4.5,1.1c-1.3,0.7-2.4,1.6-3.2,2.7c-0.9,1.1-1.5,2.4-1.9,3.8
				c-0.4,1.4-0.7,2.8-0.7,4.2c0,1.6,0.3,3.1,0.8,4.5c0.5,1.5,1.2,2.7,2.1,3.8c0.9,1.1,2,2,3.3,2.7c1.3,0.7,2.7,1,4.2,1
				c0.8,0,1.6-0.1,2.5-0.3c0.9-0.2,1.7-0.5,2.5-1c0.8-0.4,1.5-1,2.2-1.7c0.7-0.7,1.2-1.5,1.6-2.5l5.7,3.3c-0.6,1.3-1.4,2.5-2.4,3.5
				c-1.1,1-2.2,1.9-3.6,2.6c-1.3,0.7-2.7,1.2-4.2,1.6c-1.5,0.4-3,0.6-4.4,0.6c-2.5,0-4.9-0.5-7-1.6c-2.1-1.1-3.9-2.5-5.4-4.2
				c-1.5-1.7-2.7-3.7-3.6-5.9C81,39.3,80.6,37.1,80.6,34.8z"/>
			
				<linearGradient id="SVGID_7_" gradientUnits="userSpaceOnUse" x1="111.8448" y1="50.7169" x2="372.5826" y2="28.4317" gradientTransform="matrix(1 0 0 -1 -1.752 88.8613)">
				<stop  offset="0" style="stop-color:#3B6BB4"/>
				<stop  offset="7.490000e-02" style="stop-color:#3B6FB7"/>
				<stop  offset="0.1907" style="stop-color:#3A7BBF"/>
				<stop  offset="0.3329" style="stop-color:#388FCD"/>
				<stop  offset="0.4946" style="stop-color:#32ACE2"/>
				<stop  offset="0.515" style="stop-color:#31B0E5"/>
				<stop  offset="0.7067" style="stop-color:#2CB1D5"/>
				<stop  offset="1" style="stop-color:#15B3BB"/>
			</linearGradient>
			<path class="st7" d="M128.7,53.4c-2.1,0-4.1-0.4-5.8-1.1c-1.7-0.7-3.2-1.7-4.3-3c-1.2-1.3-2.1-2.7-2.7-4.3c-0.6-1.6-1-3.4-1-5.2
				c0-1.8,0.3-3.6,1-5.2c0.6-1.6,1.5-3.1,2.7-4.3c1.2-1.3,2.6-2.2,4.3-3c1.7-0.7,3.6-1.1,5.8-1.1c2.1,0,4.1,0.4,5.8,1.1
				c1.7,0.7,3.1,1.7,4.3,3c1.2,1.3,2.1,2.7,2.7,4.3c0.6,1.6,1,3.4,1,5.2c0,1.8-0.3,3.5-1,5.2c-0.6,1.6-1.5,3.1-2.7,4.3
				c-1.2,1.3-2.6,2.3-4.3,3C132.8,53,130.8,53.4,128.7,53.4z M121.8,39.8c0,1.2,0.2,2.2,0.5,3.2c0.4,1,0.8,1.8,1.5,2.5
				c0.6,0.7,1.3,1.2,2.2,1.6c0.8,0.4,1.7,0.6,2.7,0.6c1,0,1.9-0.2,2.7-0.6c0.8-0.4,1.6-0.9,2.2-1.6c0.6-0.7,1.1-1.5,1.5-2.5
				c0.4-1,0.5-2,0.5-3.2c0-1.1-0.2-2.2-0.5-3.2c-0.4-1-0.8-1.8-1.5-2.5c-0.6-0.7-1.3-1.2-2.2-1.6c-0.8-0.4-1.7-0.6-2.7-0.6
				c-1,0-1.9,0.2-2.7,0.6c-0.8,0.4-1.6,1-2.2,1.7c-0.6,0.7-1.1,1.5-1.5,2.5C122,37.6,121.8,38.6,121.8,39.8z"/>
			
				<linearGradient id="SVGID_8_" gradientUnits="userSpaceOnUse" x1="112.0496" y1="53.1134" x2="372.7874" y2="30.8282" gradientTransform="matrix(1 0 0 -1 -1.752 88.8613)">
				<stop  offset="0" style="stop-color:#3B6BB4"/>
				<stop  offset="7.490000e-02" style="stop-color:#3B6FB7"/>
				<stop  offset="0.1907" style="stop-color:#3A7BBF"/>
				<stop  offset="0.3329" style="stop-color:#388FCD"/>
				<stop  offset="0.4946" style="stop-color:#32ACE2"/>
				<stop  offset="0.515" style="stop-color:#31B0E5"/>
				<stop  offset="0.7067" style="stop-color:#2CB1D5"/>
				<stop  offset="1" style="stop-color:#15B3BB"/>
			</linearGradient>
			<path class="st8" d="M162.6,32.4c-2,0-3.9,0.4-5.5,1.2c-1.6,0.8-2.8,1.9-3.5,3.4v15.9H147V26.6h6.2v5.6c0.5-0.9,1-1.7,1.7-2.4
				c0.6-0.7,1.3-1.3,2.1-1.9c0.7-0.5,1.5-0.9,2.2-1.2c0.8-0.3,1.5-0.4,2.2-0.4c0.4,0,0.6,0,0.8,0s0.4,0,0.5,0.1L162.6,32.4
				L162.6,32.4z"/>
			
				<linearGradient id="SVGID_9_" gradientUnits="userSpaceOnUse" x1="112.1975" y1="54.8433" x2="372.9353" y2="32.5581" gradientTransform="matrix(1 0 0 -1 -1.752 88.8613)">
				<stop  offset="0" style="stop-color:#3B6BB4"/>
				<stop  offset="7.490000e-02" style="stop-color:#3B6FB7"/>
				<stop  offset="0.1907" style="stop-color:#3A7BBF"/>
				<stop  offset="0.3329" style="stop-color:#388FCD"/>
				<stop  offset="0.4946" style="stop-color:#32ACE2"/>
				<stop  offset="0.515" style="stop-color:#31B0E5"/>
				<stop  offset="0.7067" style="stop-color:#2CB1D5"/>
				<stop  offset="1" style="stop-color:#15B3BB"/>
			</linearGradient>
			<path class="st9" d="M177.3,53.4c-2.1,0-4-0.4-5.7-1.1c-1.7-0.7-3.2-1.7-4.4-2.9c-1.2-1.2-2.1-2.7-2.8-4.3c-0.7-1.6-1-3.4-1-5.2
				c0-1.9,0.3-3.6,1-5.3c0.6-1.7,1.6-3.1,2.8-4.4c1.2-1.3,2.7-2.2,4.4-3c1.7-0.7,3.7-1.1,5.8-1.1c2.1,0,4.1,0.4,5.7,1.1
				c1.7,0.7,3.1,1.7,4.3,3c1.2,1.2,2.1,2.7,2.7,4.3c0.6,1.6,0.9,3.3,0.9,5.1c0,0.4,0,0.9,0,1.3c0,0.4-0.1,0.7-0.1,1h-20.3
				c0.1,1,0.4,2,0.8,2.8c0.4,0.8,0.9,1.5,1.6,2.1c0.6,0.6,1.4,1,2.2,1.3c0.8,0.3,1.6,0.5,2.5,0.5c1.3,0,2.6-0.3,3.8-1
				c1.2-0.7,2-1.5,2.4-2.6l5.8,1.6c-1,2-2.5,3.7-4.6,4.9C182.8,52.7,180.2,53.4,177.3,53.4z M184.1,37.5c-0.2-2-0.9-3.6-2.2-4.7
				c-1.3-1.2-2.9-1.8-4.7-1.8c-0.9,0-1.7,0.2-2.5,0.5s-1.5,0.8-2.1,1.3c-0.6,0.6-1.1,1.3-1.5,2.1c-0.4,0.8-0.6,1.7-0.7,2.7
				C170.5,37.5,184.1,37.5,184.1,37.5z"/>
			
				<linearGradient id="SVGID_10_" gradientUnits="userSpaceOnUse" x1="112.7533" y1="61.3464" x2="373.4911" y2="39.0612" gradientTransform="matrix(1 0 0 -1 -1.752 88.8613)">
				<stop  offset="0" style="stop-color:#3B6BB4"/>
				<stop  offset="7.490000e-02" style="stop-color:#3B6FB7"/>
				<stop  offset="0.1907" style="stop-color:#3A7BBF"/>
				<stop  offset="0.3329" style="stop-color:#388FCD"/>
				<stop  offset="0.4946" style="stop-color:#32ACE2"/>
				<stop  offset="0.515" style="stop-color:#31B0E5"/>
				<stop  offset="0.7067" style="stop-color:#2CB1D5"/>
				<stop  offset="1" style="stop-color:#15B3BB"/>
			</linearGradient>
			<path class="st10" d="M195.6,52.9V17.2h6.9v29.6h18.2v6.1H195.6z"/>
			
				<linearGradient id="SVGID_11_" gradientUnits="userSpaceOnUse" x1="113.0029" y1="64.2672" x2="373.7407" y2="41.982" gradientTransform="matrix(1 0 0 -1 -1.752 88.8613)">
				<stop  offset="0" style="stop-color:#3B6BB4"/>
				<stop  offset="7.490000e-02" style="stop-color:#3B6FB7"/>
				<stop  offset="0.1907" style="stop-color:#3A7BBF"/>
				<stop  offset="0.3329" style="stop-color:#388FCD"/>
				<stop  offset="0.4946" style="stop-color:#32ACE2"/>
				<stop  offset="0.515" style="stop-color:#31B0E5"/>
				<stop  offset="0.7067" style="stop-color:#2CB1D5"/>
				<stop  offset="1" style="stop-color:#15B3BB"/>
			</linearGradient>
			<path class="st11" d="M224.2,22.9v-6.7h6.7v6.7H224.2z M224.2,52.9V26.6h6.7v26.3L224.2,52.9L224.2,52.9z"/>
			
				<linearGradient id="SVGID_12_" gradientUnits="userSpaceOnUse" x1="112.7135" y1="60.8812" x2="373.4513" y2="38.596" gradientTransform="matrix(1 0 0 -1 -1.752 88.8613)">
				<stop  offset="0" style="stop-color:#3B6BB4"/>
				<stop  offset="7.490000e-02" style="stop-color:#3B6FB7"/>
				<stop  offset="0.1907" style="stop-color:#3A7BBF"/>
				<stop  offset="0.3329" style="stop-color:#388FCD"/>
				<stop  offset="0.4946" style="stop-color:#32ACE2"/>
				<stop  offset="0.515" style="stop-color:#31B0E5"/>
				<stop  offset="0.7067" style="stop-color:#2CB1D5"/>
				<stop  offset="1" style="stop-color:#15B3BB"/>
			</linearGradient>
			<path class="st12" d="M261.5,52.9h-6.7V38.1c0-2.1-0.4-3.6-1.1-4.6c-0.7-1-1.8-1.5-3.1-1.5c-0.7,0-1.4,0.1-2.1,0.4
				c-0.7,0.3-1.4,0.6-2,1.1c-0.6,0.5-1.2,1.1-1.7,1.7c-0.5,0.7-0.9,1.4-1.1,2.2v15.4H237V26.6h6.1v4.9c1-1.7,2.4-3,4.2-3.9
				c1.8-0.9,3.9-1.4,6.2-1.4c1.6,0,3,0.3,4,0.9c1,0.6,1.8,1.4,2.4,2.4c0.6,1,1,2.1,1.2,3.3c0.2,1.2,0.3,2.5,0.3,3.8V52.9L261.5,52.9
				z"/>
			
				<linearGradient id="SVGID_13_" gradientUnits="userSpaceOnUse" x1="112.9392" y1="63.5222" x2="373.6771" y2="41.237" gradientTransform="matrix(1 0 0 -1 -1.752 88.8613)">
				<stop  offset="0" style="stop-color:#3B6BB4"/>
				<stop  offset="7.490000e-02" style="stop-color:#3B6FB7"/>
				<stop  offset="0.1907" style="stop-color:#3A7BBF"/>
				<stop  offset="0.3329" style="stop-color:#388FCD"/>
				<stop  offset="0.4946" style="stop-color:#32ACE2"/>
				<stop  offset="0.515" style="stop-color:#31B0E5"/>
				<stop  offset="0.7067" style="stop-color:#2CB1D5"/>
				<stop  offset="1" style="stop-color:#15B3BB"/>
			</linearGradient>
			<path class="st13" d="M279.6,53.4c-2.1,0-4-0.4-5.7-1.1c-1.7-0.7-3.2-1.7-4.4-2.9c-1.2-1.2-2.1-2.7-2.8-4.3c-0.7-1.6-1-3.4-1-5.2
				c0-1.9,0.3-3.6,1-5.3c0.6-1.7,1.6-3.1,2.8-4.4c1.2-1.3,2.7-2.2,4.4-3c1.7-0.7,3.7-1.1,5.8-1.1c2.1,0,4.1,0.4,5.7,1.1
				c1.7,0.7,3.1,1.7,4.3,3c1.2,1.2,2.1,2.7,2.7,4.3c0.6,1.6,0.9,3.3,0.9,5.1c0,0.4,0,0.9,0,1.3c0,0.4-0.1,0.7-0.1,1h-20.3
				c0.1,1,0.4,2,0.8,2.8c0.4,0.8,0.9,1.5,1.6,2.1c0.6,0.6,1.4,1,2.2,1.3c0.8,0.3,1.6,0.5,2.5,0.5c1.3,0,2.6-0.3,3.8-1
				c1.2-0.7,2-1.5,2.4-2.6l5.8,1.6c-1,2-2.5,3.7-4.6,4.9C285.1,52.7,282.5,53.4,279.6,53.4z M286.4,37.5c-0.2-2-0.9-3.6-2.2-4.7
				c-1.3-1.2-2.9-1.8-4.7-1.8c-0.9,0-1.8,0.2-2.5,0.5c-0.8,0.3-1.5,0.8-2.1,1.3c-0.6,0.6-1.1,1.3-1.5,2.1c-0.4,0.8-0.6,1.7-0.7,2.7
				C272.7,37.5,286.4,37.5,286.4,37.5z"/>
		</g>
	</g>
</g>
</svg>
